<svg width="644pt" height="1412pt"
 viewBox="0.00 0.00 643.86 1412.00" xmlns="http://www.w3.org/2000/svg" xmlns:xlink="http://www.w3.org/1999/xlink">
<g id="graph0" class="graph" transform="scale(1 1) rotate(0) translate(4 1408)">
<title>%3</title>
<polygon fill="#ffffff" stroke="transparent" points="-4,4 -4,-1408 639.8639,-1408 639.8639,4 -4,4"/>
<!-- [END]@42121758 -->
<g id="node1" class="node">
<title>[END]@42121758</title>
<ellipse fill="none" stroke="#000000" cx="416.8322" cy="-18" rx="81.4863" ry="18"/>
<text text-anchor="middle" x="416.8322" y="-14.3" font-family="Times,serif" font-size="14.00" fill="#000000">[END]@42121758</text>
</g>
<!-- [END]@1282788025 -->
<g id="node2" class="node">
<title>[END]@1282788025</title>
<ellipse fill="none" stroke="#000000" cx="200.8322" cy="-234" rx="89.0842" ry="18"/>
<text text-anchor="middle" x="200.8322" y="-230.3" font-family="Times,serif" font-size="14.00" fill="#000000">[END]@1282788025</text>
</g>
<!-- [START]@475266352 -->
<g id="node3" class="node">
<title>[START]@475266352</title>
<ellipse fill="none" stroke="#000000" cx="429.8322" cy="-1386" rx="96.3833" ry="18"/>
<text text-anchor="middle" x="429.8322" y="-1382.3" font-family="Times,serif" font-size="14.00" fill="#000000">[START]@475266352</text>
</g>
<!-- (recv_start)@1631862159 -->
<g id="node4" class="node">
<title>(recv_start)@1631862159</title>
<ellipse fill="none" stroke="#000000" cx="429.8322" cy="-1314" rx="106.6812" ry="18"/>
<text text-anchor="middle" x="429.8322" y="-1310.3" font-family="Times,serif" font-size="14.00" fill="#000000">(recv_start)@1631862159</text>
</g>
<!-- [START]@475266352&#45;&gt;(recv_start)@1631862159 -->
<g id="edge1" class="edge">
<title>[START]@475266352&#45;&gt;(recv_start)@1631862159</title>
<path fill="none" stroke="#000000" d="M429.8322,-1367.8314C429.8322,-1360.131 429.8322,-1350.9743 429.8322,-1342.4166"/>
<polygon fill="#000000" stroke="#000000" points="433.3323,-1342.4132 429.8322,-1332.4133 426.3323,-1342.4133 433.3323,-1342.4132"/>
</g>
<!-- (a)@1674896058 -->
<g id="node5" class="node">
<title>(a)@1674896058</title>
<ellipse fill="none" stroke="#000000" cx="429.8322" cy="-1242" rx="76.8869" ry="18"/>
<text text-anchor="middle" x="429.8322" y="-1238.3" font-family="Times,serif" font-size="14.00" fill="#000000">(a)@1674896058</text>
</g>
<!-- (recv_start)@1631862159&#45;&gt;(a)@1674896058 -->
<g id="edge2" class="edge">
<title>(recv_start)@1631862159&#45;&gt;(a)@1674896058</title>
<path fill="none" stroke="#000000" d="M429.8322,-1295.8314C429.8322,-1288.131 429.8322,-1278.9743 429.8322,-1270.4166"/>
<polygon fill="#000000" stroke="#000000" points="433.3323,-1270.4132 429.8322,-1260.4133 426.3323,-1270.4133 433.3323,-1270.4132"/>
</g>
<!-- [ALT_START]@1355531311 -->
<g id="node6" class="node">
<title>[ALT_START]@1355531311</title>
<ellipse fill="none" stroke="#000000" cx="429.8322" cy="-1170" rx="120.4791" ry="18"/>
<text text-anchor="middle" x="429.8322" y="-1166.3" font-family="Times,serif" font-size="14.00" fill="#000000">[ALT_START]@1355531311</text>
</g>
<!-- (a)@1674896058&#45;&gt;[ALT_START]@1355531311 -->
<g id="edge3" class="edge">
<title>(a)@1674896058&#45;&gt;[ALT_START]@1355531311</title>
<path fill="none" stroke="#000000" d="M429.8322,-1223.8314C429.8322,-1216.131 429.8322,-1206.9743 429.8322,-1198.4166"/>
<polygon fill="#000000" stroke="#000000" points="433.3323,-1198.4132 429.8322,-1188.4133 426.3323,-1198.4133 433.3323,-1198.4132"/>
</g>
<!-- [PLL_START]@20671747 -->
<g id="node7" class="node">
<title>[PLL_START]@20671747</title>
<ellipse fill="none" stroke="#000000" cx="429.8322" cy="-1098" rx="111.2805" ry="18"/>
<text text-anchor="middle" x="429.8322" y="-1094.3" font-family="Times,serif" font-size="14.00" fill="#000000">[PLL_START]@20671747</text>
</g>
<!-- [ALT_START]@1355531311&#45;&gt;[PLL_START]@20671747 -->
<g id="edge4" class="edge">
<title>[ALT_START]@1355531311&#45;&gt;[PLL_START]@20671747</title>
<path fill="none" stroke="#000000" d="M429.8322,-1151.8314C429.8322,-1144.131 429.8322,-1134.9743 429.8322,-1126.4166"/>
<polygon fill="#000000" stroke="#000000" points="433.3323,-1126.4132 429.8322,-1116.4133 426.3323,-1126.4133 433.3323,-1126.4132"/>
</g>
<!-- (c)@1690716179 -->
<g id="node8" class="node">
<title>(c)@1690716179</title>
<ellipse fill="none" stroke="#000000" cx="345.8322" cy="-1026" rx="76.0865" ry="18"/>
<text text-anchor="middle" x="345.8322" y="-1022.3" font-family="Times,serif" font-size="14.00" fill="#000000">(c)@1690716179</text>
</g>
<!-- [PLL_START]@20671747&#45;&gt;(c)@1690716179 -->
<g id="edge5" class="edge">
<title>[PLL_START]@20671747&#45;&gt;(c)@1690716179</title>
<path fill="none" stroke="#000000" d="M409.0681,-1080.2022C398.4891,-1071.1345 385.4706,-1059.9758 374.0012,-1050.1449"/>
<polygon fill="#000000" stroke="#000000" points="376.2278,-1047.4436 366.3574,-1043.593 371.6722,-1052.7584 376.2278,-1047.4436"/>
</g>
<!-- (b)@1911728085 -->
<g id="node9" class="node">
<title>(b)@1911728085</title>
<ellipse fill="none" stroke="#000000" cx="514.8322" cy="-1026" rx="75.2868" ry="18"/>
<text text-anchor="middle" x="514.8322" y="-1022.3" font-family="Times,serif" font-size="14.00" fill="#000000">(b)@1911728085</text>
</g>
<!-- [PLL_START]@20671747&#45;&gt;(b)@1911728085 -->
<g id="edge6" class="edge">
<title>[PLL_START]@20671747&#45;&gt;(b)@1911728085</title>
<path fill="none" stroke="#000000" d="M450.8434,-1080.2022C461.6283,-1071.0668 474.9186,-1059.8092 486.5873,-1049.925"/>
<polygon fill="#000000" stroke="#000000" points="488.9877,-1052.4787 494.3559,-1043.3446 484.4632,-1047.1374 488.9877,-1052.4787"/>
</g>
<!-- [PLL_END]@846063400 -->
<g id="node10" class="node">
<title>[PLL_END]@846063400</title>
<ellipse fill="none" stroke="#000000" cx="429.8322" cy="-954" rx="108.5808" ry="18"/>
<text text-anchor="middle" x="429.8322" y="-950.3" font-family="Times,serif" font-size="14.00" fill="#000000">[PLL_END]@846063400</text>
</g>
<!-- (c)@1690716179&#45;&gt;[PLL_END]@846063400 -->
<g id="edge7" class="edge">
<title>(c)@1690716179&#45;&gt;[PLL_END]@846063400</title>
<path fill="none" stroke="#000000" d="M366.1662,-1008.5708C376.739,-999.5084 389.8343,-988.2839 401.3941,-978.3755"/>
<polygon fill="#000000" stroke="#000000" points="403.787,-980.9342 409.1018,-971.7689 399.2314,-975.6194 403.787,-980.9342"/>
</g>
<!-- (b)@1911728085&#45;&gt;[PLL_END]@846063400 -->
<g id="edge25" class="edge">
<title>(b)@1911728085&#45;&gt;[PLL_END]@846063400</title>
<path fill="none" stroke="#000000" d="M494.2561,-1008.5708C483.5574,-999.5084 470.3062,-988.2839 458.6088,-978.3755"/>
<polygon fill="#000000" stroke="#000000" points="460.702,-975.5617 450.8093,-971.7689 456.1776,-980.903 460.702,-975.5617"/>
</g>
<!-- [ALT_END]@1967205423 -->
<g id="node11" class="node">
<title>[ALT_END]@1967205423</title>
<ellipse fill="none" stroke="#000000" cx="429.8322" cy="-882" rx="112.3801" ry="18"/>
<text text-anchor="middle" x="429.8322" y="-878.3" font-family="Times,serif" font-size="14.00" fill="#000000">[ALT_END]@1967205423</text>
</g>
<!-- [PLL_END]@846063400&#45;&gt;[ALT_END]@1967205423 -->
<g id="edge8" class="edge">
<title>[PLL_END]@846063400&#45;&gt;[ALT_END]@1967205423</title>
<path fill="none" stroke="#000000" d="M429.8322,-935.8314C429.8322,-928.131 429.8322,-918.9743 429.8322,-910.4166"/>
<polygon fill="#000000" stroke="#000000" points="433.3323,-910.4132 429.8322,-900.4133 426.3323,-910.4133 433.3323,-910.4132"/>
</g>
<!-- (send_f$[(recv_start)@1348949648])@1207769059 -->
<g id="node12" class="node">
<title>(send_f$[(recv_start)@1348949648])@1207769059</title>
<ellipse fill="none" stroke="#000000" cx="429.8322" cy="-810" rx="206.0634" ry="18"/>
<text text-anchor="middle" x="429.8322" y="-806.3" font-family="Times,serif" font-size="14.00" fill="#000000">(send_f$[(recv_start)@1348949648])@1207769059</text>
</g>
<!-- [ALT_END]@1967205423&#45;&gt;(send_f$[(recv_start)@1348949648])@1207769059 -->
<g id="edge9" class="edge">
<title>[ALT_END]@1967205423&#45;&gt;(send_f$[(recv_start)@1348949648])@1207769059</title>
<path fill="none" stroke="#000000" d="M429.8322,-863.8314C429.8322,-856.131 429.8322,-846.9743 429.8322,-838.4166"/>
<polygon fill="#000000" stroke="#000000" points="433.3323,-838.4132 429.8322,-828.4133 426.3323,-838.4133 433.3323,-838.4132"/>
</g>
<!-- (recv_f)@1879492184 -->
<g id="node13" class="node">
<title>(recv_f)@1879492184</title>
<ellipse fill="none" stroke="#000000" cx="416.8322" cy="-234" rx="96.3833" ry="18"/>
<text text-anchor="middle" x="416.8322" y="-230.3" font-family="Times,serif" font-size="14.00" fill="#000000">(recv_f)@1879492184</text>
</g>
<!-- (send_f$[(recv_start)@1348949648])@1207769059&#45;&gt;(recv_f)@1879492184 -->
<g id="edge10" class="edge">
<title>(send_f$[(recv_start)@1348949648])@1207769059&#45;&gt;(recv_f)@1879492184</title>
<path fill="none" stroke="#000000" d="M429.8322,-791.8146C429.8322,-764.4983 429.8322,-711.25 429.8322,-666 429.8322,-666 429.8322,-666 429.8322,-378 429.8322,-337.7128 424.7225,-291.3414 420.9101,-262.3495"/>
<polygon fill="#000000" stroke="#000000" points="424.3375,-261.5772 419.5258,-252.138 417.4009,-262.5175 424.3375,-261.5772"/>
</g>
<!-- (recv_start)@1348949648 -->
<g id="node14" class="node">
<title>(recv_start)@1348949648</title>
<ellipse fill="none" stroke="#000000" cx="167.8322" cy="-738" rx="109.381" ry="18"/>
<text text-anchor="middle" x="167.8322" y="-734.3" font-family="Times,serif" font-size="14.00" fill="#000000">(recv_start)@1348949648</text>
</g>
<!-- (send_f$[(recv_start)@1348949648])@1207769059&#45;&gt;(recv_start)@1348949648 -->
<g id="edge11" class="edge">
<title>(send_f$[(recv_start)@1348949648])@1207769059&#45;&gt;(recv_start)@1348949648</title>
<path fill="none" stroke="#000000" d="M367.4095,-792.8457C327.2792,-781.8175 275.1916,-767.5034 234.2925,-756.2639"/>
<polygon fill="#000000" stroke="#000000" points="234.987,-752.8251 224.417,-753.55 233.1321,-759.5748 234.987,-752.8251"/>
</g>
<!-- (d)@2075203460 -->
<g id="node15" class="node">
<title>(d)@2075203460</title>
<ellipse fill="none" stroke="#000000" cx="416.8322" cy="-162" rx="77.1866" ry="18"/>
<text text-anchor="middle" x="416.8322" y="-158.3" font-family="Times,serif" font-size="14.00" fill="#000000">(d)@2075203460</text>
</g>
<!-- (recv_f)@1879492184&#45;&gt;(d)@2075203460 -->
<g id="edge12" class="edge">
<title>(recv_f)@1879492184&#45;&gt;(d)@2075203460</title>
<path fill="none" stroke="#000000" d="M416.8322,-215.8314C416.8322,-208.131 416.8322,-198.9743 416.8322,-190.4166"/>
<polygon fill="#000000" stroke="#000000" points="420.3323,-190.4132 416.8322,-180.4133 413.3323,-190.4133 420.3323,-190.4132"/>
</g>
<!-- [ALT_START]@314337396 -->
<g id="node17" class="node">
<title>[ALT_START]@314337396</title>
<ellipse fill="none" stroke="#000000" cx="167.8322" cy="-666" rx="116.1796" ry="18"/>
<text text-anchor="middle" x="167.8322" y="-662.3" font-family="Times,serif" font-size="14.00" fill="#000000">[ALT_START]@314337396</text>
</g>
<!-- (recv_start)@1348949648&#45;&gt;[ALT_START]@314337396 -->
<g id="edge15" class="edge">
<title>(recv_start)@1348949648&#45;&gt;[ALT_START]@314337396</title>
<path fill="none" stroke="#000000" d="M167.8322,-719.8314C167.8322,-712.131 167.8322,-702.9743 167.8322,-694.4166"/>
<polygon fill="#000000" stroke="#000000" points="171.3323,-694.4132 167.8322,-684.4133 164.3323,-694.4133 171.3323,-694.4132"/>
</g>
<!-- (send_start)@1146848448 -->
<g id="node16" class="node">
<title>(send_start)@1146848448</title>
<ellipse fill="none" stroke="#000000" cx="416.8322" cy="-90" rx="110.4804" ry="18"/>
<text text-anchor="middle" x="416.8322" y="-86.3" font-family="Times,serif" font-size="14.00" fill="#000000">(send_start)@1146848448</text>
</g>
<!-- (d)@2075203460&#45;&gt;(send_start)@1146848448 -->
<g id="edge13" class="edge">
<title>(d)@2075203460&#45;&gt;(send_start)@1146848448</title>
<path fill="none" stroke="#000000" d="M416.8322,-143.8314C416.8322,-136.131 416.8322,-126.9743 416.8322,-118.4166"/>
<polygon fill="#000000" stroke="#000000" points="420.3323,-118.4132 416.8322,-108.4133 413.3323,-118.4133 420.3323,-118.4132"/>
</g>
<!-- (send_start)@1146848448&#45;&gt;[END]@42121758 -->
<g id="edge14" class="edge">
<title>(send_start)@1146848448&#45;&gt;[END]@42121758</title>
<path fill="none" stroke="#000000" d="M416.8322,-71.8314C416.8322,-64.131 416.8322,-54.9743 416.8322,-46.4166"/>
<polygon fill="#000000" stroke="#000000" points="420.3323,-46.4132 416.8322,-36.4133 413.3323,-46.4133 420.3323,-46.4132"/>
</g>
<!-- [PLL_START]@519569038 -->
<g id="node18" class="node">
<title>[PLL_START]@519569038</title>
<ellipse fill="none" stroke="#000000" cx="167.8322" cy="-594" rx="116.1796" ry="18"/>
<text text-anchor="middle" x="167.8322" y="-590.3" font-family="Times,serif" font-size="14.00" fill="#000000">[PLL_START]@519569038</text>
</g>
<!-- [ALT_START]@314337396&#45;&gt;[PLL_START]@519569038 -->
<g id="edge16" class="edge">
<title>[ALT_START]@314337396&#45;&gt;[PLL_START]@519569038</title>
<path fill="none" stroke="#000000" d="M167.8322,-647.8314C167.8322,-640.131 167.8322,-630.9743 167.8322,-622.4166"/>
<polygon fill="#000000" stroke="#000000" points="171.3323,-622.4132 167.8322,-612.4133 164.3323,-622.4133 171.3323,-622.4132"/>
</g>
<!-- (a)@1729199940 -->
<g id="node19" class="node">
<title>(a)@1729199940</title>
<ellipse fill="none" stroke="#000000" cx="103.8322" cy="-522" rx="76.8869" ry="18"/>
<text text-anchor="middle" x="103.8322" y="-518.3" font-family="Times,serif" font-size="14.00" fill="#000000">(a)@1729199940</text>
</g>
<!-- [PLL_START]@519569038&#45;&gt;(a)@1729199940 -->
<g id="edge17" class="edge">
<title>[PLL_START]@519569038&#45;&gt;(a)@1729199940</title>
<path fill="none" stroke="#000000" d="M151.6823,-575.8314C144.0448,-567.2392 134.7957,-556.834 126.4729,-547.4708"/>
<polygon fill="#000000" stroke="#000000" points="129.0148,-545.0622 119.7552,-539.9134 123.7829,-549.7128 129.0148,-545.0622"/>
</g>
<!-- (b)@1769597131 -->
<g id="node20" class="node">
<title>(b)@1769597131</title>
<ellipse fill="none" stroke="#000000" cx="273.8322" cy="-522" rx="75.2868" ry="18"/>
<text text-anchor="middle" x="273.8322" y="-518.3" font-family="Times,serif" font-size="14.00" fill="#000000">(b)@1769597131</text>
</g>
<!-- [PLL_START]@519569038&#45;&gt;(b)@1769597131 -->
<g id="edge18" class="edge">
<title>[PLL_START]@519569038&#45;&gt;(b)@1769597131</title>
<path fill="none" stroke="#000000" d="M193.7627,-576.3868C207.6988,-566.9208 225.0482,-555.1363 240.0308,-544.9594"/>
<polygon fill="#000000" stroke="#000000" points="242.2296,-547.697 248.5351,-539.1829 238.2964,-541.9065 242.2296,-547.697"/>
</g>
<!-- [PLL_END]@611437735 -->
<g id="node21" class="node">
<title>[PLL_END]@611437735</title>
<ellipse fill="none" stroke="#000000" cx="200.8322" cy="-450" rx="106.6812" ry="18"/>
<text text-anchor="middle" x="200.8322" y="-446.3" font-family="Times,serif" font-size="14.00" fill="#000000">[PLL_END]@611437735</text>
</g>
<!-- (a)@1729199940&#45;&gt;[PLL_END]@611437735 -->
<g id="edge19" class="edge">
<title>(a)@1729199940&#45;&gt;[PLL_END]@611437735</title>
<path fill="none" stroke="#000000" d="M127.3132,-504.5708C139.757,-495.3341 155.2268,-483.8514 168.7611,-473.8054"/>
<polygon fill="#000000" stroke="#000000" points="170.9499,-476.5395 176.8936,-467.7689 166.7777,-470.9187 170.9499,-476.5395"/>
</g>
<!-- (b)@1769597131&#45;&gt;[PLL_END]@611437735 -->
<g id="edge24" class="edge">
<title>(b)@1769597131&#45;&gt;[PLL_END]@611437735</title>
<path fill="none" stroke="#000000" d="M255.7872,-504.2022C246.8376,-495.3752 235.8791,-484.5669 226.1091,-474.9307"/>
<polygon fill="#000000" stroke="#000000" points="228.5,-472.3728 218.9225,-467.8425 223.5845,-477.3566 228.5,-472.3728"/>
</g>
<!-- [ALT_END]@232824863 -->
<g id="node22" class="node">
<title>[ALT_END]@232824863</title>
<ellipse fill="none" stroke="#000000" cx="200.8322" cy="-378" rx="106.6812" ry="18"/>
<text text-anchor="middle" x="200.8322" y="-374.3" font-family="Times,serif" font-size="14.00" fill="#000000">[ALT_END]@232824863</text>
</g>
<!-- [PLL_END]@611437735&#45;&gt;[ALT_END]@232824863 -->
<g id="edge20" class="edge">
<title>[PLL_END]@611437735&#45;&gt;[ALT_END]@232824863</title>
<path fill="none" stroke="#000000" d="M200.8322,-431.8314C200.8322,-424.131 200.8322,-414.9743 200.8322,-406.4166"/>
<polygon fill="#000000" stroke="#000000" points="204.3323,-406.4132 200.8322,-396.4133 197.3323,-406.4133 204.3323,-406.4132"/>
</g>
<!-- (send_start$[(recv_f)@1879492184])@834133664 -->
<g id="node23" class="node">
<title>(send_start$[(recv_f)@1879492184])@834133664</title>
<ellipse fill="none" stroke="#000000" cx="200.8322" cy="-306" rx="200.6645" ry="18"/>
<text text-anchor="middle" x="200.8322" y="-302.3" font-family="Times,serif" font-size="14.00" fill="#000000">(send_start$[(recv_f)@1879492184])@834133664</text>
</g>
<!-- [ALT_END]@232824863&#45;&gt;(send_start$[(recv_f)@1879492184])@834133664 -->
<g id="edge21" class="edge">
<title>[ALT_END]@232824863&#45;&gt;(send_start$[(recv_f)@1879492184])@834133664</title>
<path fill="none" stroke="#000000" d="M200.8322,-359.8314C200.8322,-352.131 200.8322,-342.9743 200.8322,-334.4166"/>
<polygon fill="#000000" stroke="#000000" points="204.3323,-334.4132 200.8322,-324.4133 197.3323,-334.4133 204.3323,-334.4132"/>
</g>
<!-- (send_start$[(recv_f)@1879492184])@834133664&#45;&gt;[END]@1282788025 -->
<g id="edge22" class="edge">
<title>(send_start$[(recv_f)@1879492184])@834133664&#45;&gt;[END]@1282788025</title>
<path fill="none" stroke="#000000" d="M200.8322,-287.8314C200.8322,-280.131 200.8322,-270.9743 200.8322,-262.4166"/>
<polygon fill="#000000" stroke="#000000" points="204.3323,-262.4132 200.8322,-252.4133 197.3323,-262.4133 204.3323,-262.4132"/>
</g>
<!-- (send_start$[(recv_f)@1879492184])@834133664&#45;&gt;(recv_f)@1879492184 -->
<g id="edge23" class="edge">
<title>(send_start$[(recv_f)@1879492184])@834133664&#45;&gt;(recv_f)@1879492184</title>
<path fill="none" stroke="#000000" d="M253.1198,-288.5708C285.3928,-277.8131 326.806,-264.0087 359.9048,-252.9758"/>
<polygon fill="#000000" stroke="#000000" points="361.0667,-256.2779 369.4468,-249.7951 358.8531,-249.6371 361.0667,-256.2779"/>
</g>
<!-- [START]@12209492 -->
<g id="node24" class="node">
<title>[START]@12209492</title>
<ellipse fill="none" stroke="#000000" cx="114.8322" cy="-810" rx="90.9839" ry="18"/>
<text text-anchor="middle" x="114.8322" y="-806.3" font-family="Times,serif" font-size="14.00" fill="#000000">[START]@12209492</text>
</g>
<!-- [START]@12209492&#45;&gt;(recv_start)@1348949648 -->
<g id="edge26" class="edge">
<title>[START]@12209492&#45;&gt;(recv_start)@1348949648</title>
<path fill="none" stroke="#000000" d="M128.2063,-791.8314C134.4046,-783.411 141.8846,-773.2495 148.6684,-764.0338"/>
<polygon fill="#000000" stroke="#000000" points="151.5364,-766.0417 154.6459,-755.9134 145.899,-761.8919 151.5364,-766.0417"/>
</g>
</g>
</svg>
